<?xml version="1.0" encoding="utf-8"?>
<!-- Generator: Adobe Illustrator 28.3.0, SVG Export Plug-In . SVG Version: 6.00 Build 0)  -->
<svg version="1.1" id="Layer_1" xmlns="http://www.w3.org/2000/svg" xmlns:xlink="http://www.w3.org/1999/xlink" x="0px" y="0px"
	 viewBox="0 0 562.4 490" style="enable-background:new 0 0 562.4 490;" xml:space="preserve">
<style type="text/css">
	.st0{fill:none;stroke:url(#SVGID_1_);stroke-width:13;stroke-linecap:round;stroke-linejoin:round;}
</style>
<linearGradient id="SVGID_1_" gradientUnits="userSpaceOnUse" x1="0" y1="357.98" x2="562.3575" y2="357.98" gradientTransform="matrix(1 0 0 -1 0 602.98)">
	<stop  offset="0" style="stop-color:#00C1B3"/>
	<stop  offset="1.000000e-02" style="stop-color:#03BDB4"/>
	<stop  offset="0.28" style="stop-color:#497BCE"/>
	<stop  offset="0.53" style="stop-color:#8146E3"/>
	<stop  offset="0.74" style="stop-color:#AA20F2"/>
	<stop  offset="0.9" style="stop-color:#C209FB"/>
	<stop  offset="1" style="stop-color:#CC01FF"/>
</linearGradient>
<path class="st0" d="M514.3,472.7l-6.2,10.8H288.3l-48.5-84h219.9l42.3,73.2 M502.1,326l-42.4,73.4l42.4,73.4
	c2.8,4.8,9.7,4.8,12.5,0l40.3-69.8c1.3-2.2,1.3-5,0-7.2L514.6,326C511.8,321.2,504.9,321.2,502.1,326L502.1,326z M459.8,399.4
	l16.2,28.1l16.2-28.1L476,371.3L459.8,399.4z M476,427.4l16.2,28.1l16.2-28.1l-16.2-28.1L476,427.4z M492.2,455.5l10,17.3
	c2.8,4.8,9.7,4.8,12.5,0l10-17.3l-16.2-28.1L492.2,455.5L492.2,455.5z M476,371.3l16.2,28.1l16.2-28.1l-16.2-28.1L476,371.3z
	 M492.2,399.4l16.2,28.1l16.2-28.1l-16.2-28.1L492.2,399.4z M508.4,427.4l16.2,28.1l16.2-28.1l-16.2-28.1L508.4,427.4z M502.1,326
	l-10,17.3l16.2,28.1l16.2-28.1l-10-17.3C511.8,321.2,504.9,321.2,502.1,326L502.1,326z M508.4,371.3l16.2,28.1l16.2-28.1l-16.2-28.1
	L508.4,371.3z M524.6,399.4l16.2,28.1l14.1-24.5c1.3-2.2,1.3-5,0-7.2l-14.1-24.5L524.6,399.4L524.6,399.4z M515.1,327.1l-6.7-11.6
	h-25.5l-35.8,62h-97.6l-35.8-62h-21.4c-2.6,0-4.9,1.4-6.2,3.6l-46.4,80.4h220.2l45-77.9 M459.8,399.5h-97.2H459.8z M255.4,427.5h96
	 M451.4,427.5h-68 M301.4,455.5h39 M370.4,455.5h69 M462.4,455.5h27 M447,377.5l-103.9-180h-26l-35.7,61.9l68.2,118.1H447L447,377.5
	z M493.3,296.3c1.3-2.2,1.3-5,0-7.2L398,124c-2.8-4.8-9.7-4.8-12.5,0l-42.4,73.4l103.7,179.6L493.3,296.3L493.3,296.3z M398,124.3
	l-6.2-10.8h-25.8l-35.8,62h-25.7l12.7,22h26l46.8-81.1 M325,221.9l60.3,104.4 M414.4,376.9l-17.4-30.1 M309.8,251.8l30.1,52.2
	 M351.1,323.4L370,356 M375.4,141.5h-26 M359.4,169.5h-26 M314,191.8l13-22.4 M268.6,113.5L165,293.1l13,22.5h71.3l68-117.8
	L268.6,113.5L268.6,113.5z M169.4,116.1L73.8,281.7c-2.8,4.8,0.7,10.8,6.2,10.8h85l103.9-180h-93.3
	C173,112.5,170.7,113.9,169.4,116.1L169.4,116.1z M165,292.8l13,22.5 M79.1,273.2l-11.3,19.6l13,22.5 M208.7,273.2l-13.1,22.6
	 M223.3,247.9l51.8-89.8 M226.4,298.6l58.4-101.2 M100.2,292.8l13,22.5 M132.6,292.8l13,22.5 M13.5,387.3l-7,12.2l46.4,80.4
	c1.3,2.2,3.6,3.6,6.2,3.6h190.4c5.5,0,9-6,6.2-10.8l-42.3-73.2h-202 M16.4,399.5h197.2l46.6-80.8 M18.9,399.5h194.5l42.3-73.2
	c2.8-4.8-0.7-10.8-6.2-10.8H59.1c-2.6,0-4.9,1.4-6.2,3.6l-40.2,69.6C9.9,393.5,13.4,399.5,18.9,399.5L18.9,399.5z M248.4,483.5h13.7
	l12.9-22.4l-35.6-61.6l35.6-61.6l-12.9-22.4h-19.7 M258.3,321.8l-44.8,77.5l46.1,79.8 M22.4,427.5h58 M110.4,427.5h119 M189.4,455.5
	h57 M62.4,455.5h72 M229.8,371.3l13,22.5 M246,455.5l13-22.4 M258.9,365.7l-13-22.5 M229.8,427.4l13-22.4 M281.6,90.5l42.3-73.2
	c2.8-4.8-0.7-10.8-6.2-10.8h-80.4c-2.6,0-4.9,1.4-6.2,3.6l-46.4,80.4L281.6,90.5L281.6,90.5z M378.8,90.8l-42.4-73.4
	c-2.8-4.8-9.7-4.8-12.5,0l-42.4,73.4l48.6,84.2L378.8,90.8L378.8,90.8z M336.9,18.3l-6.8-11.8h-92.9c-2.6,0-4.9,1.4-6.2,3.6
	l-46.4,80.4h97l46.2-80 M184.3,90.5l13.3,23h71l35.8,62h26.1l-49.1-85L184.3,90.5L184.3,90.5z M346.4,34.7l-36.6,63.4 M314,146.9
	l33.2-57.4 M355.1,75.7l7.5-13 M249.2,90.8l13,22.5 M314.4,146.5h-26 M229.8,113.2l-13-22.4 M297.4,118.5h-26"/>
</svg>
